<?xml version="1.0" standalone="no"?>
<!DOCTYPE svg PUBLIC "-//W3C//DTD SVG 1.1//EN" "http://www.w3.org/Graphics/SVG/1.1/DTD/svg11.dtd" >
<svg xmlns="http://www.w3.org/2000/svg" xmlns:xlink="http://www.w3.org/1999/xlink" version="1.1">
<metadata>
Created by FontForge 20150913 at Thu Apr 21 13:17:10 2016
 By Jimmy Wärting
Sergey Kharlamov, kharlamov@porsche.ru, 2:5020/1868.8
</metadata>
<defs>
<font id="SKPorsche" horiz-adv-x="2600" >
  <font-face 
    font-family="Porsche"
    font-weight="400"
    font-stretch="normal"
    units-per-em="2048"
    panose-1="4 11 8 7 8 3 1 3 0 3"
    ascent="1638"
    descent="-410"
    x-height="1247"
    cap-height="1249"
    bbox="-196 -442 3853 1602"
    underline-thickness="102"
    underline-position="-205"
    unicode-range="U+0020-2116"
  />
<missing-glyph horiz-adv-x="1399" 
 />
    <glyph glyph-name=".notdef" horiz-adv-x="1399" 
 />
    <glyph glyph-name=".null" horiz-adv-x="0" 
 />
    <glyph glyph-name="nonmarkingreturn" horiz-adv-x="1399" 
 />
    <glyph glyph-name="space" unicode=" " horiz-adv-x="1400" 
 />
    <glyph glyph-name="exclam" unicode="!" horiz-adv-x="558" 
d="M104 447l-1 751q-3 51 48 51h150q50 0 53 -53v-743q0 -53 -48 -53h-153q-49 0 -49 47zM105 200q-3 48 50 48l153 -1q45 1 45 -47v-150q0 -50 -46 -51h-152q-50 0 -50 52v149z" />
    <glyph glyph-name="quotedbl" unicode="&#x22;" horiz-adv-x="791" 
d="M604 1079l-84 -354h-71l-97 356l1 166q0 51 48 51h151q51 0 51 -50zM251 1080l-84 -354h-71l-95 356l-1 166q0 51 48 51h151q51 0 51 -50z" />
    <glyph glyph-name="numbersign" unicode="#" horiz-adv-x="1241" 
d="M3 949h199v249h200l-2 -249h250l1 249h200l-1 -249h203l-1 -198h-198l-1 -300h200l-3 -202l-199 1v-251h-198l-2 251h-249l-2 -251h-195v251h-205l1 201h200l1 300h-199v198zM400 749l3 -301h248v301h-251z" />
    <glyph glyph-name="dollar" unicode="$" horiz-adv-x="2201" 
d="M2000 305q0 -307 -304 -307h-1695l-1 251h1669q82 0 84 92l1 61q2 99 -86 99h-1363q-304 0 -304 278v166q0 304 301 304l1698 2v-251h-1665q-82 0 -82 -100v-50q0 -102 81 -102h1368q298 0 298 -296v-147zM1204 1456v-1649h-151v1649h151zM952 1456v-1649h-151v1649h151z
" />
    <glyph glyph-name="percent" unicode="%" horiz-adv-x="1901" 
d="M1283 300q0 -122 120 -122q122 0 121 122q0 120 -121 120q-120 0 -120 -120zM4 -2h300l1394 1250l-297 1zM1101 306q0 298 299 298q302 0 302 -300q0 -303 -300 -303q-301 0 -301 305zM180 952q1 -120 119 -120q117 0 117 120q0 116 -118 117q-59 0 -88.5 -29t-29.5 -88z
M3 952q0 297 297 297q301 0 301 -298q0 -302 -299 -302t-299 303z" />
    <glyph glyph-name="ampersand" unicode="&#x26;" horiz-adv-x="1493" 
d="M446 712q-147 188 -147 285q0 108 90 168q77 52 191 52q111 0 183 -55q79 -60 79 -168q0 -169 -198 -257q34 -46 112 -136q28 -32 39 -46l171 -213q166 187 166 295q0 61 -82 83q-4 10 -4 15l2 9l115 11q5 0 277 18l2 -12q0 -6 -4 -17q-87 -39 -149 -94
q-34 -31 -120 -130q-97 -113 -173 -217q105 -123 125 -142q84 -79 164 -79q64 0 113 39q31 25 46 25q5 0 17 -4q-22 -93 -41 -109q-77 -63 -167 -63q-104 0 -205 72q-31 22 -101 91q-50 49 -59 56q-80 -80 -119 -109q-147 -109 -337 -109q-251 0 -338 194q-39 87 -39 164
q0 176 177 292q18 12 103 55q49 25 111 36zM607 775q120 51 120 202q0 82 -36 135q-41 61 -120 61q-57 0 -97 -34t-40 -90q0 -54 40 -116q56 -87 133 -158zM861 226l-11 15l-223 266q-74 88 -152 173q-111 -42 -178 -120q-76 -88 -76 -198q0 -89 76 -171q91 -99 260 -99
q194 0 304 134z" />
    <glyph glyph-name="quotesingle" unicode="'" horiz-adv-x="441" 
d="M254 1081l-84 -354h-71l-97 356l1 166q0 51 48 51h151q51 0 51 -50z" />
    <glyph glyph-name="parenleft" unicode="(" horiz-adv-x="444" 
d="M301 -252q-301 0 -301 407v1045q0 294 304 300l96 2v-201l-103 -1q-94 -1 -94 -110v-1038q0 -202 100 -202h100l1 -202h-103z" />
    <glyph glyph-name="parenright" unicode=")" horiz-adv-x="498" 
d="M3 -252q296 0 296 407v1045q0 300 -299 303l-96 1v-203l103 -1q95 -1 95 -110v-1038q0 -202 -101 -202h-100l-1 -202h103z" />
    <glyph glyph-name="asterisk" unicode="*" horiz-adv-x="875" 
d="M59 725q45 34 299 158l12 9q-97 56 -148 87q-38 23 -154 84q17 38 37 70q239 -162 292 -191l1 36l-1 107l2 99q1 47 -5 109q41 1 77 0v-21q0 7 -6 -120l-7 -148q0 -3 -1 -11.5t-1 -13.5q0 -13 4 -38q14 7 35 23q84 64 272 163q19 -32 38 -67q-18 -11 -201 -105
q-105 -54 -114 -60q43 -25 63 -35l57 -28l103 -57q16 -7 50 -24q14 -9 40 -27q-16 -29 -40 -65q-88 48 -178 112q-78 55 -125 75l-1 -28q-6 -166 7 -261q5 -37 5 -64l-29 -1q-5 0 -48 6q-1 20 -1 35v27l7 278q-99 -63 -305 -178z" />
    <glyph glyph-name="plus" unicode="+" horiz-adv-x="1199" 
d="M1 723h401v400h200v-400h398v-200h-398v-401h-200v401h-401v200z" />
    <glyph glyph-name="comma" unicode="," horiz-adv-x="452" 
d="M250 2l-142 -206h-108l103 204h-50q-53 0 -53 52v149q0 51 48 51h151q51 0 51 -50v-200z" />
    <glyph glyph-name="period" unicode="." horiz-adv-x="500" 
d="M-1 200q0 50 50 50h153q50 0 50 -51v-150q0 -50 -51 -50h-152q-50 0 -50 52v149z" />
    <glyph glyph-name="slash" unicode="/" horiz-adv-x="1895" 
d="M3 -2h300l1394 1250l-297 1z" />
    <glyph glyph-name="zero" unicode="0" horiz-adv-x="2599" 
d="M2151 346v547q0 105 -100 105h-1698q-100 0 -100 -98v-551q0 -102 100 -102h1700q98 0 98 99zM300 -2q-296 0 -297 304l-3 645q-1 300 297 300h1799q305 0 305 -307v-647q0 -292 -295 -292z" />
    <glyph glyph-name="one" unicode="1" horiz-adv-x="556" 
d="M97 -1v997h-184l-2 252h441v-1249h-255z" />
    <glyph glyph-name="two" unicode="2" horiz-adv-x="2603" 
d="M3 -2h2398v251h-2148v153q0 96 96 96l1760 -1q295 0 295 303v148q0 301 -300 301l-2102 -1l1 -251h2045q107 0 104 -93l-2 -62q-3 -95 -97 -95h-1750q-300 0 -300 -296v-453z" />
    <glyph glyph-name="three" unicode="3" horiz-adv-x="2603" 
d="M2098 0l-2097 -2v251h2051q100 0 100 98v55q0 94 -100 94h-1853v253l1853 -1q97 0 97 105v47q0 97 -97 97h-2051v250h2104q298 0 298 -273v-172q0 -150 -151 -179q152 -24 151 -168l-1 -157q-2 -298 -304 -298z" />
    <glyph glyph-name="four" unicode="4" horiz-adv-x="2606" 
d="M2146 -2v477h-2146v774h250l-1 -517h1894v517h258l2 -1251h-257z" />
    <glyph glyph-name="five" unicode="5" horiz-adv-x="2603" 
d="M2401 305q0 -307 -306 -307h-2095v254h2057q99 0 92 86l1 64q1 96 -100 96l-2047 2l-3 751h2401v-251l-2149 1v-252l1843 -1q306 0 306 -296v-147z" />
    <glyph glyph-name="six" unicode="6" horiz-adv-x="2593" 
d="M2401 305q0 -307 -306 -307h-1800q-295 0 -295 304v652q0 295 297 295l2078 2v-251h-2025q-100 0 -99 -100l1 -152h1843q306 0 306 -296v-147zM250 351q0 -101 99 -101h1702q103 0 103 101v50q0 96 -104 96l-1800 -1v-145z" />
    <glyph glyph-name="seven" unicode="7" horiz-adv-x="2605" 
d="M0 1250h2402v-1249h-251v993h-2151v256z" />
    <glyph glyph-name="eight" unicode="8" horiz-adv-x="2603" 
d="M347 746h1703q99 0 101 105l1 49q2 99 -104 99h-1694q-105 0 -103 -103l1 -42q3 -108 95 -108zM2048 249q99 0 101 97l1 49q2 102 -95 102h-1702q-106 0 -104 -97l1 -52q2 -99 100 -99h1698zM2099 0l-1796 -2q-299 0 -301 300l-1 151q-1 148 153 178q-154 18 -153 175
l1 193q1 252 296 252h1808q298 0 298 -296v-149q0 -154 -155 -179q152 -23 153 -171l1 -154q2 -298 -304 -298z" />
    <glyph glyph-name="nine" unicode="9" horiz-adv-x="2599" 
d="M0 944q0 306 306 306h1799q295 0 295 -304v-649q0 -297 -303 -297l-2097 1v250h2050q99 0 99 100v146l-1843 -1q-306 0 -306 301v147zM2152 905q0 93 -98 93h-1702q-110 0 -105 -95l3 -54q6 -103 103 -103l1799 -1v160z" />
    <glyph glyph-name="colon" unicode=":" horiz-adv-x="449" 
d="M2 898q0 51 53 51l150 -1q50 0 50 -51v-150q0 -50 -51 -50h-152q-50 0 -50 52v149zM-1 200q0 51 53 51l150 -1q50 0 50 -51v-150q0 -50 -51 -50h-152q-50 0 -50 52v149z" />
    <glyph glyph-name="semicolon" unicode=";" horiz-adv-x="448" 
d="M251 2l-142 -206h-108l103 204h-50q-53 0 -53 52v149q0 51 48 51h151q51 0 51 -50v-200zM0 901q0 51 53 51l150 -1q50 0 50 -51v-150q0 -50 -51 -50h-152q-50 0 -50 52v149z" />
    <glyph glyph-name="less" unicode="&#x3c;" horiz-adv-x="1299" 
d="M1100 97l-1100 399v247l1100 407v-195l-855 -329l855 -324v-205z" />
    <glyph glyph-name="equal" unicode="=" horiz-adv-x="1399" 
d="M1 873h1199v-200h-1199v200zM1 573h1199v-200h-1199v200z" />
    <glyph glyph-name="greater" unicode="&#x3e;" horiz-adv-x="1299" 
d="M0 103l1100 399v247l-1100 407v-195l855 -329l-855 -324v-205z" />
    <glyph glyph-name="question" unicode="?" horiz-adv-x="2601" 
d="M2102 497q297 0 297 278v216q0 258 -297 258l-1804 -1q-296 0 -297 -245l-1 -253h251l-1 154q-1 98 91 98l1717 -2q95 0 95 -99v-52q0 -102 -99 -102l-691 -1q-285 0 -288 -249l-2 -147h252v53q0 94 92 94h685zM1072 201q0 51 53 51l150 -1q50 0 50 -51v-150
q0 -50 -51 -50h-152q-50 0 -50 52v149z" />
    <glyph glyph-name="at" unicode="@" horiz-adv-x="2349" 
d="M575 927l1356 2v-408h123l1 406q0 123 -130 123h-1607q-113 0 -115 -112v-626q0 -108 112 -111h1936l1 -203l-1995 1q-256 1 -255 257v736q5 259 268 258h1715q272 0 268 -259v-424q0 -241 -268 -241h-1409q-260 -1 -260 249v104q0 248 259 248zM624 522h1100l1 207
h-1103q-97 0 -97 -105q1 -102 99 -102z" />
    <glyph glyph-name="A" unicode="A" 
d="M2403 0h-253v402h-1897v-402h-249v940q0 310 301 310h1796q302 0 302 -313v-937zM253 652h1897v248q0 99 -100 99h-1697q-100 0 -100 -102v-245z" />
    <glyph glyph-name="B" unicode="B" horiz-adv-x="2602" 
d="M252 746h1797q99 0 101 105l1 49q2 99 -104 99h-1797zM2047 246q99 0 101 100l1 49q2 102 -95 102h-1805v-251h1798zM2098 0l-2097 -2v1249h2104q298 0 298 -299v-146q0 -154 -155 -179q156 -24 155 -168l-1 -157q-2 -298 -304 -298z" />
    <glyph glyph-name="C" unicode="C" horiz-adv-x="2605" 
d="M2401 -2h-2104q-295 0 -295 304v649q0 296 295 296h2104v-248h-2048q-99 0 -99 -96v-555q0 -102 95 -102h2052v-248z" />
    <glyph glyph-name="D" unicode="D" 
d="M252 248h1801q98 0 98 104v545q0 102 -105 102h-1794v-751zM0 1250h2100q301 0 301 -300v-647q0 -304 -301 -304h-2100v1251z" />
    <glyph glyph-name="E" unicode="E" horiz-adv-x="2605" 
d="M2401 -2h-2400v1252h2400v-251h-2146v-251h2146v-251h-2146v-250h2146v-249z" />
    <glyph glyph-name="F" unicode="F" horiz-adv-x="2651" 
d="M313 -2h-254v1252h2400v-250h-2146v-301h2146v-254h-2146v-447z" />
    <glyph glyph-name="G" unicode="G" horiz-adv-x="2604" 
d="M1151 499v247h1250v-441q0 -307 -301 -307h-1799q-302 0 -301 307l3 642q1 300 295 300h2103v-249h-2051q-97 0 -97 -108v-541q0 -102 97 -102h1703q100 0 99 101l-1 151h-1000z" />
    <glyph glyph-name="H" unicode="H" horiz-adv-x="2605" 
d="M2401 -2h-249v500h-1902l-1 -500h-247v1249h247v-500h1903v500h249v-1249z" />
    <glyph glyph-name="I" unicode="I" horiz-adv-x="508" 
d="M50 2v1249h255v-1249h-255z" />
    <glyph glyph-name="J" unicode="J" horiz-adv-x="2606" 
d="M0 301q-3 -303 306 -303h1793q304 0 304 306v944h-250v-906q0 -94 -102 -94h-1700q-98 0 -96 103l1 48l-255 1z" />
    <glyph glyph-name="K" unicode="K" horiz-adv-x="2800" 
d="M2249 625l353 622h-302l-301 -499h-1746v499h-253l3 -1249h250v499h1747l297 -499h305z" />
    <glyph glyph-name="L" unicode="L" horiz-adv-x="2602" 
d="M2399 -2h-2401v1250h251v-1001h2150v-249z" />
    <glyph glyph-name="M" unicode="M" horiz-adv-x="3608" 
d="M1727 396l-1473 556v-954h-254v1249h251l1471 -550l1429 550h252l1 -1249h-253l2 952z" />
    <glyph glyph-name="N" unicode="N" horiz-adv-x="2604" 
d="M2148 1h253v1246h-252l1 -953l-1899 956h-251l3 -1252h250v963z" />
    <glyph glyph-name="O" unicode="O" horiz-adv-x="2599" 
d="M2151 346v547q0 105 -100 105h-1698q-100 0 -100 -98v-551q0 -102 100 -102h1700q98 0 98 99zM300 -2q-300 0 -300 301v648q0 300 297 300h1799q305 0 305 -307v-647q0 -292 -295 -292z" />
    <glyph glyph-name="P" unicode="P" 
d="M2051 998h-1798v-352l1801 3q91 0 92 99l1 153q1 97 -96 97zM253 397v-399h-253v1250h2094q307 0 307 -297v-246q0 -309 -304 -309z" />
    <glyph glyph-name="Q" unicode="Q" horiz-adv-x="2599" 
d="M2151 402v501q0 95 -101 95h-1700q-94 0 -94 -92v-560q0 -99 97 -99h1532l-915 394l618 2zM301 -2q-301 0 -301 307v648q0 294 304 294h1793q304 0 304 -303v-639q0 -307 -301 -307h-1799z" />
    <glyph glyph-name="R" unicode="R" horiz-adv-x="2602" 
d="M2404 -2h-305l-302 401h-1544v-401h-253l3 1250h2101q297 0 297 -295v-256q0 -298 -303 -298zM2044 999h-1791v-352h1799q99 0 100 106l2 145q1 101 -110 101z" />
    <glyph glyph-name="S" unicode="S" horiz-adv-x="2603" 
d="M2401 305q0 -307 -306 -307h-2095l3 248h2048q99 0 101 92l1 61q2 99 -103 99h-1747q-303 0 -303 281v166q0 304 297 304l2104 2v-251h-2051q-99 0 -99 -100v-50q0 -102 97 -102h1747q306 0 306 -296v-147z" />
    <glyph glyph-name="T" unicode="T" horiz-adv-x="3002" 
d="M1552 -2h-300v999h-1252v254h2800v-251h-1248v-1002z" />
    <glyph glyph-name="U" unicode="U" horiz-adv-x="2604" 
d="M2154 350v898h247v-943q0 -307 -301 -307h-1800q-300 0 -300 307v943h253v-898q0 -105 98 -105l1705 2q98 0 98 103z" />
    <glyph glyph-name="V" unicode="V" horiz-adv-x="2998" 
d="M2450 1251h351l-1231 -1252h-341l-1229 1249h347l1053 -1006z" />
    <glyph glyph-name="W" unicode="W" horiz-adv-x="3804" 
d="M1937 1248h-270l1 -998h-1313q-97 0 -97 100v901h-258v-946q0 -307 307 -307h3002q292 0 292 307v946h-249v-904q0 -97 -123 -97h-1292v998z" />
    <glyph glyph-name="X" unicode="X" horiz-adv-x="2998" 
d="M379 624l-379 -626h302l318 500h1538l334 -500h308l-381 628l381 622h-301l-340 -499h-1541l-313 502h-305z" />
    <glyph glyph-name="Y" unicode="Y" horiz-adv-x="2604" 
d="M2089 -5l-2088 1l-1 251l2055 2q94 0 95 98l1 151h-1849q-302 0 -302 305v446h250l1 -405q0 -98 103 -98h1797v506h250v-948q0 -309 -312 -309z" />
    <glyph glyph-name="Z" unicode="Z" horiz-adv-x="2605" 
d="M3 -2h2398v248h-2149l2149 546v460h-2401l3 -254l2148 2l-2148 -551v-451z" />
    <glyph glyph-name="bracketleft" unicode="[" horiz-adv-x="399" 
d="M3 -350v1952l400 -2v-200l-200 1l1 -1552h202l2 -201z" />
    <glyph glyph-name="backslash" unicode="\" horiz-adv-x="1902" 
d="M1702 -2h-302l-1400 1250l299 1z" />
    <glyph glyph-name="bracketright" unicode="]" horiz-adv-x="410" 
d="M206 -353v1952l-398 -1v-198l194 1l-1 -1555h-196l-1 -202z" />
    <glyph glyph-name="asciicircum" unicode="^" horiz-adv-x="1024" 
d="M513 1374l448 -538l-65 -53l-383 461l-384 -461l-63 53z" />
    <glyph glyph-name="underscore" unicode="_" 
d="M2402 -251h-2401l1 196h2400v-196z" />
    <glyph glyph-name="a" unicode="a" 
d="M2403 0h-253v402h-1897v-402h-249v940q0 310 301 310h1796q302 0 302 -313v-937zM253 652h1897v248q0 99 -100 99h-1697q-100 0 -100 -102v-245z" />
    <glyph glyph-name="b" unicode="b" horiz-adv-x="2602" 
d="M252 746h1797q99 0 101 105l1 49q2 99 -104 99h-1797zM2047 246q99 0 101 100l1 49q2 102 -95 102h-1805v-251h1798zM2098 0l-2097 -2v1249h2104q298 0 298 -299v-146q0 -154 -155 -179q156 -24 155 -168l-1 -157q-2 -298 -304 -298z" />
    <glyph glyph-name="c" unicode="c" horiz-adv-x="2605" 
d="M2401 -2h-2104q-295 0 -295 304v649q0 296 295 296h2104v-248h-2048q-99 0 -99 -96v-555q0 -102 95 -102h2052v-248z" />
    <glyph glyph-name="d" unicode="d" 
d="M252 248h1801q98 0 98 104v545q0 102 -105 102h-1794v-751zM0 1250h2100q301 0 301 -300v-647q0 -304 -301 -304h-2100v1251z" />
    <glyph glyph-name="e" unicode="e" horiz-adv-x="2605" 
d="M2401 -2h-2400v1252h2400v-251h-2146v-251h2146v-251h-2146v-250h2146v-249z" />
    <glyph glyph-name="f" unicode="f" horiz-adv-x="2651" 
d="M313 -2h-254v1252h2400v-250h-2146v-301h2146v-254h-2146v-447z" />
    <glyph glyph-name="g" unicode="g" horiz-adv-x="2604" 
d="M1151 499v247h1250v-441q0 -307 -301 -307h-1799q-302 0 -301 307l3 642q1 300 295 300h2103v-249h-2051q-97 0 -97 -108v-541q0 -102 97 -102h1703q100 0 99 101l-1 151h-1000z" />
    <glyph glyph-name="h" unicode="h" horiz-adv-x="2605" 
d="M2401 -2h-249v500h-1902l-1 -500h-247v1249h247v-500h1903v500h249v-1249z" />
    <glyph glyph-name="i" unicode="i" horiz-adv-x="508" 
d="M50 2v1249h255v-1249h-255z" />
    <glyph glyph-name="j" unicode="j" horiz-adv-x="2606" 
d="M0 301q-3 -303 306 -303h1793q304 0 304 306v944h-250v-906q0 -94 -102 -94h-1700q-98 0 -96 103l1 48l-255 1z" />
    <glyph glyph-name="k" unicode="k" horiz-adv-x="2800" 
d="M2249 625l353 622h-302l-301 -499h-1746v499h-253l3 -1249h250v499h1747l297 -499h305z" />
    <glyph glyph-name="l" unicode="l" horiz-adv-x="2602" 
d="M2399 -2h-2401v1250h251v-1001h2150v-249z" />
    <glyph glyph-name="m" unicode="m" horiz-adv-x="3608" 
d="M1727 396l-1473 556v-954h-254v1249h251l1471 -550l1429 550h252l1 -1249h-253l2 952z" />
    <glyph glyph-name="n" unicode="n" horiz-adv-x="2604" 
d="M2148 1h253v1246h-252l1 -953l-1899 956h-251l3 -1252h250v963z" />
    <glyph glyph-name="o" unicode="o" horiz-adv-x="2599" 
d="M2151 346v547q0 105 -100 105h-1698q-100 0 -100 -98v-551q0 -102 100 -102h1700q98 0 98 99zM300 -2q-300 0 -300 301v648q0 300 297 300h1799q305 0 305 -307v-647q0 -292 -295 -292z" />
    <glyph glyph-name="p" unicode="p" 
d="M2051 998h-1798l-1 -349h1802q91 0 93 99v153q1 97 -96 97zM253 397v-399h-253v1250h2094q307 0 307 -297v-246q0 -309 -304 -309z" />
    <glyph glyph-name="q" unicode="q" horiz-adv-x="2599" 
d="M2151 402v501q0 95 -101 95h-1700q-94 0 -94 -92v-560q0 -99 97 -99h1532l-915 394l618 2zM301 -2q-301 0 -301 307v648q0 294 304 294h1793q304 0 304 -303v-639q0 -307 -301 -307h-1799z" />
    <glyph glyph-name="r" unicode="r" horiz-adv-x="2602" 
d="M2404 -2h-305l-302 401h-1544v-401h-253l3 1250h2101q297 0 297 -295v-256q0 -298 -303 -298zM2044 999h-1791v-352h1799q99 0 100 106l2 145q1 101 -110 101z" />
    <glyph glyph-name="s" unicode="s" horiz-adv-x="2603" 
d="M2401 305q0 -307 -306 -307h-2095l3 248h2048q99 0 101 92l1 61q2 99 -103 99h-1747q-303 0 -303 281v166q0 304 297 304l2104 2v-251h-2051q-99 0 -99 -100v-50q0 -102 97 -102h1747q306 0 306 -296v-147z" />
    <glyph glyph-name="t" unicode="t" horiz-adv-x="3002" 
d="M1552 -2h-300v999h-1252v254h2800v-251h-1248v-1002z" />
    <glyph glyph-name="u" unicode="u" horiz-adv-x="2604" 
d="M2154 350v898h247v-943q0 -307 -301 -307h-1800q-300 0 -300 307v943h253v-898q0 -105 98 -105l1705 2q98 0 98 103z" />
    <glyph glyph-name="v" unicode="v" horiz-adv-x="2998" 
d="M2450 1251h351l-1231 -1252h-341l-1229 1249h347l1053 -1006z" />
    <glyph glyph-name="w" unicode="w" horiz-adv-x="3804" 
d="M1937 1248h-270l1 -998h-1313q-97 0 -97 100v901h-258v-946q0 -307 307 -307h3002q292 0 292 307v946h-249v-904q0 -97 -123 -97h-1292v998z" />
    <glyph glyph-name="x" unicode="x" horiz-adv-x="2998" 
d="M379 624l-379 -626h302l318 500h1538l334 -500h308l-381 628l381 622h-301l-340 -499h-1541l-313 502h-305z" />
    <glyph glyph-name="y" unicode="y" horiz-adv-x="2604" 
d="M2089 -5l-2088 1l-1 251l2055 2q94 0 95 98l1 151h-1849q-302 0 -302 305v446h250l1 -405q0 -98 103 -98h1797v506h250v-948q0 -309 -312 -309z" />
    <glyph glyph-name="z" unicode="z" horiz-adv-x="2605" 
d="M3 -2h2398v248h-2149l2149 546v460h-2401l3 -254l2148 2l-2148 -551v-451z" />
    <glyph glyph-name="braceleft" unicode="{" horiz-adv-x="599" 
d="M450 -252q-301 0 -301 407v248q0 192 -168 275q170 71 169 267l-1 255q-1 294 304 300l96 2v-201l-103 -1q-94 -1 -94 -110l1 -291q0 -197 -130 -228q130 -19 130 -222l-1 -297q0 -202 100 -202h100l1 -202h-103z" />
    <glyph glyph-name="bar" unicode="|" horiz-adv-x="402" 
d="M3 1501h199v-1752h-199v1752z" />
    <glyph glyph-name="braceright" unicode="}" horiz-adv-x="652" 
d="M-44 -252q302 0 300 407l-1 248q-1 192 168 275q-169 70 -168 267l1 255q1 294 -303 300l-96 2v-201l103 -1q93 -1 93 -110l-1 -291q0 -197 130 -228q-130 -19 -130 -222l1 -297q0 -202 -99 -202h-100l-1 -202h103z" />
    <glyph glyph-name="dieresis" unicode="&#xa8;" horiz-adv-x="1841" 
d="M1434 1148q0 50 50 50h153q50 0 50 -51v-150q0 -50 -51 -50h-152q-50 0 -50 52v149zM142 1148q0 50 50 50h152q50 0 50 -51v-149q0 -50 -51 -50h-151q-50 0 -50 52v148z" />
    <glyph glyph-name="guillemotleft" unicode="&#xab;" horiz-adv-x="1050" 
d="M348 449l303 400h203l-306 -399l304 -401h-202zM301 849h202l-306 -397l306 -403h-199l-301 401z" />
    <glyph glyph-name="paragraph" unicode="&#xb6;" horiz-adv-x="917" 
d="M798 1301v-1743h-72v1743h-187v-1743h-73v1043q-158 7 -243 35q-237 78 -237 345q0 109 43 180q119 195 407 195h495v-55h-133z" />
    <glyph glyph-name="guillemotright" unicode="&#xbb;" horiz-adv-x="747" 
d="M1 49l252 400l-252 400h201l252 -400l-255 -400h-198zM348 849h203l251 -398l-252 -402h-199l252 402z" />
    <glyph glyph-name="afii10023" unicode="&#x401;" horiz-adv-x="2648" 
d="M2401 -2h-2400v1252h2400v-251h-2146v-251h2146v-251h-2146v-250h2146v-249zM1745 1550q0 50 50 50h153q50 0 50 -51v-150q0 -50 -51 -50h-152q-50 0 -50 52v149zM453 1550q0 50 50 50h152q50 0 50 -51v-149q0 -50 -51 -50h-151q-50 0 -50 52v148z" />
    <glyph glyph-name="afii10017" unicode="&#x410;" 
d="M2403 0h-253v402h-1897v-402h-249v940q0 310 301 310h1796q302 0 302 -313v-937zM253 652h1897v248q0 99 -100 99h-1697q-100 0 -100 -102v-245z" />
    <glyph glyph-name="afii10018" unicode="&#x411;" 
d="M2401 305q0 -307 -306 -307h-2095v1253h2401v-251l-2149 1l2 -253h1841q306 0 306 -296v-147zM254 250h1797q103 0 103 101v50q0 96 -104 96l-1797 -1z" />
    <glyph glyph-name="afii10019" unicode="&#x412;" horiz-adv-x="2597" 
d="M252 746h1797q99 0 101 105l1 49q2 99 -104 99h-1797zM2047 246q99 0 101 100l1 49q2 102 -95 102h-1805v-251h1798zM2098 0l-2097 -2v1249h2104q298 0 298 -299v-146q0 -154 -155 -179q156 -24 155 -168l-1 -157q-2 -298 -304 -298z" />
    <glyph glyph-name="afii10020" unicode="&#x413;" horiz-adv-x="2649" 
d="M2449 1250h-2401v-1249h251v993h2150v256z" />
    <glyph glyph-name="afii10021" unicode="&#x414;" horiz-adv-x="2800" 
d="M352 248l1900 -1l-1 650q0 102 -105 102h-1696q-98 0 -98 -97v-654zM100 954q0 293 300 293h1800q301 0 301 -297v-702l249 -1v-249l-2899 2v246l249 1v707z" />
    <glyph glyph-name="afii10022" unicode="&#x415;" 
d="M2401 -2h-2400v1252h2400v-251h-2146v-251h2146v-251h-2146v-250h2146v-249z" />
    <glyph glyph-name="afii10024" unicode="&#x416;" horiz-adv-x="3749" 
d="M546 624l-546 -626h297l458 500h872l-1 -498h249l1 498h962l407 -500h304l-493 623l493 627h-296l-410 -499h-970v498h-247l1 -498h-873l-447 499h-307z" />
    <glyph glyph-name="afii10025" unicode="&#x417;" horiz-adv-x="2601" 
d="M2098 0l-2097 -2v251h2051q100 0 100 98v55q0 94 -100 94h-2002v250l2002 -1q97 0 97 108v47q0 97 -97 97h-2051v250h2104q298 0 298 -273v-172q0 -150 -151 -179q152 -24 151 -168l-1 -157q-2 -298 -304 -298z" />
    <glyph glyph-name="afii10026" unicode="&#x418;" horiz-adv-x="2601" 
d="M253 1l-253 -3v1249h252l2 -948l1895 951h251v-1252h-253v963z" />
    <glyph glyph-name="afii10027" unicode="&#x419;" horiz-adv-x="2601" 
d="M253 1l-253 -3v1249h252l2 -948l1895 951h251v-1252h-253v963zM950 1349l503 -2v-200l-503 -1v203z" />
    <glyph glyph-name="afii10028" unicode="&#x41a;" horiz-adv-x="2801" 
d="M2249 625l353 627h-302l-301 -504h-1746v502h-253l3 -1252h250v499h1747l297 -499h305z" />
    <glyph glyph-name="afii10029" unicode="&#x41b;" horiz-adv-x="2700" 
d="M2254 -1h247v1250l-2101 1q-300 0 -300 -307v-592q0 -94 -96 -106l-53 2v-248h95q307 0 307 295v604q0 105 98 105h1803v-1004z" />
    <glyph glyph-name="afii10030" unicode="&#x41c;" horiz-adv-x="3602" 
d="M1727 396l-1473 556v-954h-254v1249h251l1471 -550l1429 550h252l1 -1249h-253l2 952z" />
    <glyph glyph-name="afii10031" unicode="&#x41d;" horiz-adv-x="2597" 
d="M2401 -2h-249v500h-1902l-1 -500h-247v1249h247v-500h1903v500h249v-1249z" />
    <glyph glyph-name="afii10032" unicode="&#x41e;" horiz-adv-x="2598" 
d="M2151 346v547q0 105 -100 105h-1698q-100 0 -100 -98v-551q0 -102 100 -102h1700q98 0 98 99zM300 -2q-300 0 -300 301v648q0 300 297 300h1799q305 0 305 -307v-647q0 -292 -295 -292z" />
    <glyph glyph-name="afii10033" unicode="&#x41f;" 
d="M2151 -1h250v1250h-2398l-3 -1250h253l2 999l1896 -1v-998z" />
    <glyph glyph-name="afii10034" unicode="&#x420;" 
d="M2051 998h-1798v-352l1801 3q91 0 92 99l1 153q1 97 -96 97zM253 397v-399h-253v1250h2094q307 0 307 -297v-246q0 -309 -304 -309z" />
    <glyph glyph-name="afii10035" unicode="&#x421;" 
d="M2401 -2h-2104q-295 0 -295 304v649q0 296 295 296h2104v-248h-2048q-99 0 -99 -96v-555q0 -102 95 -102h2052v-248z" />
    <glyph glyph-name="afii10036" unicode="&#x422;" horiz-adv-x="3000" 
d="M1552 -2h-300v999h-1252v254h2800v-251h-1248v-1002z" />
    <glyph glyph-name="afii10037" unicode="&#x423;" 
d="M2089 -5l-2088 1l-1 251l2055 2q94 0 95 98l1 151h-1849q-302 0 -302 305v446h250l1 -405q0 -98 103 -98h1797v506h250v-948q0 -309 -312 -309z" />
    <glyph glyph-name="afii10038" unicode="&#x424;" horiz-adv-x="3802" 
d="M352 998q-105 0 -104 -97l1 -153q1 -102 102 -102h1323v352h-1322zM1925 397v-399h-253v399l-1368 1q-304 0 -304 299v252q0 299 298 299h2996q307 0 307 -297v-246q0 -309 -304 -309zM3251 998h-1326v-352h1323q97 0 98 102l1 153q1 97 -96 97z" />
    <glyph glyph-name="afii10039" unicode="&#x425;" horiz-adv-x="3000" 
d="M379 624l-379 -626h302l318 500h1538l334 -500h308l-381 628l381 622h-301l-340 -499h-1541l-313 502h-305z" />
    <glyph glyph-name="afii10040" unicode="&#x426;" horiz-adv-x="2749" 
d="M2151 1248h250v-1000l249 -1l2 -247l-2652 -2v1250h250l2 -1001l1899 1v1000z" />
    <glyph glyph-name="afii10041" unicode="&#x427;" horiz-adv-x="2599" 
d="M2146 -2v477h-2146v774h250l-1 -517h1894v517h258l2 -1251h-257z" />
    <glyph glyph-name="afii10042" unicode="&#x428;" horiz-adv-x="3801" 
d="M1937 1248h-270l1 -998l-1416 -3l-2 999h-250v-1245h3600l1 1250h-249l1 -1003l-1416 2v998z" />
    <glyph glyph-name="afii10043" unicode="&#x429;" horiz-adv-x="3901" 
d="M1937 1248h-270l1 -998l-1416 -3l-2 999h-250v-1245l3853 -3v248l-249 2l-3 998h-249l1 -998l-1416 2v998z" />
    <glyph glyph-name="afii10044" unicode="&#x42a;" horiz-adv-x="3101" 
d="M2552 250l-1801 -3v349h1810q85 0 86 -96l1 -153q1 -97 -96 -97zM754 845v405h-754v-253l501 3v-1000h2094q307 0 307 297v246q0 303 -304 303z" />
    <glyph glyph-name="afii10045" unicode="&#x42b;" horiz-adv-x="2949" 
d="M2051 250h-1801v349l1810 -3q85 0 86 -96l1 -153q1 -97 -96 -97zM253 845v405h-253v-1250h2094q307 0 307 297v246q0 303 -304 303zM2497 2v1249h255v-1249h-255z" />
    <glyph glyph-name="afii10046" unicode="&#x42c;" 
d="M2051 250h-1801v349l1810 -3q85 0 86 -96l1 -153q1 -97 -96 -97zM253 845v405h-253v-1250h2094q307 0 307 297v246q0 303 -304 303z" />
    <glyph glyph-name="afii10047" unicode="&#x42d;" horiz-adv-x="2599" 
d="M2098 0l-2097 -2v251h2051q100 0 100 98v150l-1552 -1v253h1549v151q0 97 -97 97h-2051v250h2104q298 0 298 -273l-1 -676q0 -298 -304 -298z" />
    <glyph glyph-name="afii10048" unicode="&#x42e;" horiz-adv-x="3851" 
d="M3404 349v547q0 105 -100 105h-1698q-100 0 -100 -98v-551q0 -102 100 -102h1700q98 0 98 99zM1559 -2q-303 0 -303 304v198h-1006l2 -500l-251 1l-1 1250h251v-502l1005 1v197q0 300 300 300h1799q299 0 299 -304v-647q0 -295 -289 -295z" />
    <glyph glyph-name="afii10049" unicode="&#x42f;" horiz-adv-x="2603" 
d="M0 -2h304l302 401h1547v-401h247v1250h-2100q-297 0 -297 -295v-256q0 -298 302 -298zM359 999h1794v-352h-1802q-103 0 -102 112l1 139q1 101 109 101z" />
    <glyph glyph-name="afii10065" unicode="&#x430;" 
d="M2403 0h-253v402h-1897v-402h-249v940q0 310 301 310h1796q302 0 302 -313v-937zM253 652h1897v248q0 99 -100 99h-1697q-100 0 -100 -102v-245z" />
    <glyph glyph-name="afii10066" unicode="&#x431;" 
d="M2401 305q0 -307 -306 -307h-2095v1253h2401v-251l-2149 1l2 -253h1841q306 0 306 -296v-147zM254 250h1797q103 0 103 101v50q0 96 -104 96l-1797 -1z" />
    <glyph glyph-name="afii10067" unicode="&#x432;" horiz-adv-x="2597" 
d="M252 746h1797q99 0 101 105l1 49q2 99 -104 99h-1797zM2047 246q99 0 101 100l1 49q2 102 -95 102h-1805v-251h1798zM2098 0l-2097 -2v1249h2104q298 0 298 -299v-146q0 -154 -155 -179q156 -24 155 -168l-1 -157q-2 -298 -304 -298z" />
    <glyph glyph-name="afii10068" unicode="&#x433;" horiz-adv-x="2649" 
d="M2449 1250h-2401v-1249h251v993h2150v256z" />
    <glyph glyph-name="afii10069" unicode="&#x434;" horiz-adv-x="2800" 
d="M352 248l1900 -1l-1 650q0 102 -105 102h-1696q-98 0 -98 -97v-654zM100 954q0 293 300 293h1800q301 0 301 -297v-702l249 -1v-249l-2899 2v246l249 1v707z" />
    <glyph glyph-name="afii10070" unicode="&#x435;" horiz-adv-x="2598" 
d="M2401 -2h-2400v1252h2400v-251h-2146v-251h2146v-251h-2146v-250h2146v-249z" />
    <glyph glyph-name="afii10072" unicode="&#x436;" horiz-adv-x="3749" 
d="M546 624l-546 -626h297l458 500h872l-1 -498h249l1 498h962l407 -500h304l-493 623l493 627h-296l-410 -499h-970v498h-247l1 -498h-873l-447 499h-307z" />
    <glyph glyph-name="afii10073" unicode="&#x437;" horiz-adv-x="2601" 
d="M2098 0l-2097 -2v251h2051q100 0 100 98v55q0 94 -100 94h-2002v250l2002 -1q97 0 97 108v47q0 97 -97 97h-2051v250h2104q298 0 298 -273v-172q0 -150 -151 -179q152 -24 151 -168l-1 -157q-2 -298 -304 -298z" />
    <glyph glyph-name="afii10074" unicode="&#x438;" horiz-adv-x="2601" 
d="M253 1l-253 -3v1249h252l2 -948l1895 951h251v-1252h-253v963z" />
    <glyph glyph-name="afii10075" unicode="&#x439;" horiz-adv-x="2601" 
d="M253 1l-253 -3v1249h252l2 -948l1895 951h251v-1252h-253v963zM950 1349l503 -2v-200l-503 -1v203z" />
    <glyph glyph-name="afii10076" unicode="&#x43a;" horiz-adv-x="2801" 
d="M2249 625l353 627h-302l-301 -504h-1746v502h-253l3 -1252h250v499h1747l297 -499h305z" />
    <glyph glyph-name="afii10077" unicode="&#x43b;" horiz-adv-x="2700" 
d="M2254 -1h247v1250l-2101 1q-300 0 -300 -307v-592q0 -94 -96 -106l-53 2v-248h95q307 0 307 295v604q0 105 98 105h1803v-1004z" />
    <glyph glyph-name="afii10078" unicode="&#x43c;" horiz-adv-x="3602" 
d="M1727 396l-1473 556v-954h-254v1249h251l1471 -550l1429 550h252l1 -1249h-253l2 952z" />
    <glyph glyph-name="afii10079" unicode="&#x43d;" horiz-adv-x="2597" 
d="M2401 -2h-249v500h-1902l-1 -500h-247v1249h247v-500h1903v500h249v-1249z" />
    <glyph glyph-name="afii10080" unicode="&#x43e;" 
d="M2151 346v547q0 105 -100 105h-1698q-100 0 -100 -98v-551q0 -102 100 -102h1700q98 0 98 99zM300 -2q-300 0 -300 301v648q0 300 297 300h1799q305 0 305 -307v-647q0 -292 -295 -292z" />
    <glyph glyph-name="afii10081" unicode="&#x43f;" 
d="M2151 -1h250v1250h-2398l-3 -1250h253l2 999l1896 -1v-998z" />
    <glyph glyph-name="afii10082" unicode="&#x440;" 
d="M2051 998h-1798l-1 -349h1802q91 0 93 99v153q1 97 -96 97zM253 397v-399h-253v1250h2094q307 0 307 -297v-246q0 -309 -304 -309z" />
    <glyph glyph-name="afii10083" unicode="&#x441;" 
d="M2401 -2h-2104q-295 0 -295 304v649q0 296 295 296h2104v-248h-2048q-99 0 -99 -96v-555q0 -102 95 -102h2052v-248z" />
    <glyph glyph-name="afii10084" unicode="&#x442;" horiz-adv-x="3000" 
d="M1552 -2h-300v999h-1252v254h2800v-251h-1248v-1002z" />
    <glyph glyph-name="afii10085" unicode="&#x443;" 
d="M2089 -5l-2088 1l-1 251l2055 2q94 0 95 98l1 151h-1849q-302 0 -302 305v446h250l1 -405q0 -98 103 -98h1797v506h250v-948q0 -309 -312 -309z" />
    <glyph glyph-name="afii10086" unicode="&#x444;" horiz-adv-x="3802" 
d="M352 998q-105 0 -104 -97l1 -153q1 -102 102 -102h1323v352h-1322zM1925 397v-399h-253v399l-1368 1q-304 0 -304 299v252q0 299 298 299h2996q307 0 307 -297v-246q0 -309 -304 -309zM3251 998h-1326v-352h1323q97 0 98 102l1 153q1 97 -96 97z" />
    <glyph glyph-name="afii10087" unicode="&#x445;" horiz-adv-x="3000" 
d="M379 624l-379 -626h302l318 500h1538l334 -500h308l-381 628l381 622h-301l-340 -499h-1541l-313 502h-305z" />
    <glyph glyph-name="afii10088" unicode="&#x446;" horiz-adv-x="2749" 
d="M2151 1248h250v-1000l249 -1l2 -247l-2652 -2v1250h250l2 -1001l1899 1v1000z" />
    <glyph glyph-name="afii10089" unicode="&#x447;" horiz-adv-x="2599" 
d="M2146 -2v477h-2146v774h250l-1 -517h1894v517h258l2 -1251h-257z" />
    <glyph glyph-name="afii10090" unicode="&#x448;" horiz-adv-x="3801" 
d="M1937 1248h-268l-1 -998h-1419l1 1002h-250v-1251l3603 -1l-2 1251h-249l1 -1003l-1416 2v998z" />
    <glyph glyph-name="afii10091" unicode="&#x449;" horiz-adv-x="3901" 
d="M1937 1248h-270l-2 -1002l-1413 1l1 1000l-253 -1v-1245l3853 -3v248h-253l1 1000h-249l1 -998l-1416 -2v1002z" />
    <glyph glyph-name="afii10092" unicode="&#x44a;" horiz-adv-x="3699" 
d="M3148 247l-1796 1l-2 352h1796q98 6 99 -99l1 -153q1 -101 -98 -101zM1352 849v402l-1352 -1v-253l1098 1l1 -997h2094q307 0 307 297v246q0 303 -304 306z" />
    <glyph glyph-name="afii10093" unicode="&#x44b;" horiz-adv-x="2949" 
d="M2051 250h-1801v349h1809q86 0 93 -102l-2 -150q-2 -97 -99 -97zM250 851v399h-250v-1250h2094q307 0 307 297v246q0 301 -301 307zM2497 2v1249h255v-1249h-255z" />
    <glyph glyph-name="afii10094" unicode="&#x44c;" 
d="M2051 250h-1801v349l1796 2q99 -3 106 -95l-2 -159q-2 -97 -99 -97zM250 851v399h-250v-1250h2094q307 0 307 297v246q0 303 -298 306z" />
    <glyph glyph-name="afii10095" unicode="&#x44d;" horiz-adv-x="2599" 
d="M2098 0l-2097 -2v251h2051q100 0 100 98v150l-1552 -1v253h1549v151q0 97 -97 97h-2051v250h2104q298 0 298 -273l-1 -676q0 -298 -304 -298z" />
    <glyph glyph-name="afii10096" unicode="&#x44e;" horiz-adv-x="3851" 
d="M3404 349v547q0 105 -100 105h-1698q-100 0 -100 -98v-551q0 -102 100 -102h1700q98 0 98 99zM1559 -2q-303 0 -303 304v198h-1006l2 -500l-251 1l-1 1250h251v-502l1005 1v197q0 300 300 300h1799q299 0 299 -304v-647q0 -295 -289 -295z" />
    <glyph glyph-name="afii10097" unicode="&#x44f;" horiz-adv-x="2603" 
d="M0 -2h304l302 401h1547v-401h247v1250h-2100q-297 0 -297 -295v-256q0 -298 302 -298zM359 999h1791v-349h-1799q-103 -3 -102 109l1 139q1 101 109 101z" />
    <glyph glyph-name="afii10071" unicode="&#x451;" horiz-adv-x="2648" 
d="M2449 -2h-2400v1252h2400v-251h-2146v-251h2146v-251h-2146v-250h2146v-249zM1793 1550q0 50 50 50h153q50 0 50 -51v-150q0 -50 -51 -50h-152q-50 0 -50 52v149zM501 1550q0 50 50 50h152q50 0 50 -51v-149q0 -50 -51 -50h-151q-50 0 -50 52v148z" />
    <glyph glyph-name="endash" unicode="&#x2013;" horiz-adv-x="2300" 
d="M1 726h2099v-200h-2099v200z" />
    <glyph glyph-name="emdash" unicode="&#x2014;" horiz-adv-x="3000" 
d="M1 726h2799v-200h-2799v200z" />
    <glyph glyph-name="afii00208" unicode="&#x2015;" horiz-adv-x="1536" 
d="M-12 438h1560v-93h-1560v93z" />
    <glyph glyph-name="quoteleft" unicode="&#x2018;" horiz-adv-x="454" 
d="M1 1247l144 204h109l-104 -202h50q54 0 54 -51v-148q0 -50 -49 -50h-152q-52 0 -52 49v198z" />
    <glyph glyph-name="quoteright" unicode="&#x2019;" horiz-adv-x="437" 
d="M249 1003l-142 -202h-107l102 200h-49q-53 0 -53 51v147q0 50 48 50h150q51 0 51 -49v-197z" />
    <glyph glyph-name="quotesinglbase" unicode="&#x201a;" horiz-adv-x="450" 
d="M250 2l-142 -206h-108l103 204h-50q-53 0 -53 52v149q0 51 48 51h151q51 0 51 -50v-200z" />
    <glyph glyph-name="quotedblleft" unicode="&#x201c;" horiz-adv-x="788" 
d="M351 1193l142 203h108l-103 -201h50q53 0 53 -51v-147q0 -50 -48 -50h-151q-51 0 -51 49v197zM1 1196l142 203h108l-103 -201h50q53 0 53 -51v-147q0 -50 -48 -50h-151q-51 0 -51 49v197z" />
    <glyph glyph-name="quotedblright" unicode="&#x201d;" horiz-adv-x="784" 
d="M249 1003l-142 -202h-107l102 200h-49q-53 0 -53 51v147q0 50 48 50h150q51 0 51 -49v-197zM597 1000l-141 -202h-108l103 200h-50q-53 0 -53 52v146q0 50 48 50h150q51 0 51 -49v-197z" />
    <glyph glyph-name="quotedblbase" unicode="&#x201e;" horiz-adv-x="800" 
d="M600 -1l-142 -206h-108l103 204h-50q-53 0 -53 52v149q0 51 48 51h151q51 0 51 -50v-200zM250 2l-142 -206h-108l103 204h-50q-53 0 -53 52v149q0 51 48 51h151q51 0 51 -50v-200z" />
    <glyph glyph-name="bullet" unicode="&#x2022;" horiz-adv-x="725" 
d="M363 928q111 0 181 -70t70 -181t-70 -181t-181 -70t-181 70t-70 181t70 181t181 70z" />
    <glyph glyph-name="minute" unicode="&#x2032;" horiz-adv-x="447" 
d="M249 1080l-84 -354h-71l-95 356l-1 166q0 51 48 51h151q51 0 51 -50z" />
    <glyph glyph-name="second" unicode="&#x2033;" horiz-adv-x="799" 
d="M604 1079l-84 -354h-71l-97 356l1 166q0 51 48 51h151q51 0 51 -50zM251 1080l-84 -354h-71l-95 356l-1 166q0 51 48 51h151q51 0 51 -50z" />
    <glyph glyph-name="afii61352" unicode="&#x2116;" horiz-adv-x="3048" 
d="M2148 1h253v1047h447v199h-699l1 -953l-1899 956h-251l3 -1252h250v963zM2492 773q0 121 44 154q30 23 132 23q176 0 177 -176q1 -177 -176 -177t-177 176zM2500 498h352v-150l-352 -1v151z" />
    <glyph glyph-name="ch254#2" horiz-adv-x="1204" 
d="M4 726h999v-200h-999v200z" />
    <glyph glyph-name="nonbreakingspace" unicode="&#xa0;" horiz-adv-x="1399" 
 />
    <glyph glyph-name="ch254" unicode="-" horiz-adv-x="1204" 
d="M4 726h999v-200h-999v200z" />
    <glyph glyph-name="ch254" unicode="&#x2010;" horiz-adv-x="1204" 
d="M4 726h999v-200h-999v200z" />
    <glyph glyph-name="Euro" unicode="&#x20ac;" horiz-adv-x="2199" 
d="M500 -3l1695 -2v251h-1649q-98 0 -98 103l1 548q0 97 97 97h1649v253l-1702 2q-298 0 -298 -278l1 -676q0 -298 304 -298zM3 474h1196v101l-1195 -1zM0 666h1196v101l-1195 -1z" />
  </font>
</defs>
</svg>
