<?xml version="1.0" encoding="UTF-8" standalone="no"?>
<svg
   xmlns:dc="http://purl.org/dc/elements/1.1/"
   xmlns:cc="http://creativecommons.org/ns#"
   xmlns:rdf="http://www.w3.org/1999/02/22-rdf-syntax-ns#"
   xmlns:svg="http://www.w3.org/2000/svg"
   xmlns="http://www.w3.org/2000/svg"
   height="118.50593"
   width="287.68311"
   id="svg2"
   xml:space="preserve"
   viewBox="0 0 287.68311 118.50593"
   y="0px"
   x="0px"
   version="1.1"><metadata
     id="metadata75"><rdf:RDF><cc:Work
         rdf:about=""><dc:format>image/svg+xml</dc:format><dc:type
           rdf:resource="http://purl.org/dc/dcmitype/StillImage" /><dc:title></dc:title></cc:Work></rdf:RDF></metadata><defs
     id="defs73" /><style
     id="style4"
     type="text/css">
	.st0{fill:none;stroke:#FF7D13;stroke-width:3;stroke-miterlimit:10;}
	.st1{fill:#FF7D13;stroke:#FF7D13;stroke-miterlimit:10;}
	.st2{fill:#FF7D13;}
</style><g
     transform="translate(-11.350098,-8.4803973)"
     id="Слой_3"><line
       style="fill:none;stroke:#ff7d13;stroke-width:3;stroke-miterlimit:10"
       id="line7"
       y2="73.5"
       x2="298.66666"
       y1="73.5"
       x1="11.75"
       class="st0" /></g><g
     transform="translate(-11.350098,-8.4803973)"
     id="_x0D_СКД"><g
       id="g10"><path
         style="fill:#ff7d13;stroke:#ff7d13;stroke-miterlimit:10"
         id="path12"
         d="m 96.189941,53.070312 -73.96875,0 c -6.914062,0 -10.371093,-3.5625 -10.371093,-10.6875 l 0,-22.816406 c 0,-6.9375 3.457031,-10.4062497 10.371093,-10.4062497 l 73.96875,0 0,8.7187497 -72.033691,0 c -2.321289,0 -3.481934,1.125 -3.481934,3.375 l 0,19.511719 c 0,2.390625 1.113282,3.585937 3.341309,3.585937 l 72.174316,0 0,8.71875 z"
         class="st1" /><path
         style="fill:#ff7d13;stroke:#ff7d13;stroke-miterlimit:10"
         id="path14"
         d="m 193.31641,53.070312 -10.72266,0 -10.44141,-17.542968 -61.41796,0 0,17.542968 -8.78907,0 -0.10547,-44.085937 8.89454,0.070312 0,17.648438 61.38281,0 10.58203,-17.7187505 10.61719,0 -12.41016,22.0429685 12.41016,22.042969 z"
         class="st1" /><path
         style="fill:#ff7d13;stroke:#ff7d13;stroke-miterlimit:10"
         id="path16"
         d="m 205.36914,19.450684 c 0,-6.859864 3.51563,-10.2905277 10.54688,-10.2905277 l 63.28125,0 c 7.05371,0 10.58203,3.4804687 10.58203,10.4414067 l 0,24.679687 8.7539,0 0,8.789062 -101.91797,-0.0708 0,-8.718262 8.75391,0 0,-24.830566 z m 8.82422,24.830566 66.83203,0 0,-22.821289 c 0,-2.387207 -1.23242,-3.581055 -3.69531,-3.581055 l -59.68848,0 c -2.29883,0 -3.44824,1.137207 -3.44824,3.410156 l 0,22.992188 z"
         class="st1" /></g></g><g
     transform="translate(-11.350098,-8.4803973)"
     id="техническая__x0D_инвентаризация"><g
       id="g19"><path
         style="fill:#ff7d13"
         id="path21"
         d="m 20.39209,95.144531 -2.952149,0 0,6.822269 -2.627929,0 0,-6.822269 -2.952149,0 0,-2.051758 8.532227,0 0,2.051758 z"
         class="st2" /><path
         style="fill:#ff7d13"
         id="path23"
         d="m 38.355957,98.420898 -3.204102,0 c 0.0835,0.647461 0.281739,1.083008 0.59375,1.304688 0.312012,0.222656 0.815918,0.333004 1.512207,0.333004 0.947754,0 2.051758,-0.06543 3.312012,-0.198238 l 0.251953,1.656248 c -0.924316,0.44434 -2.213867,0.66602 -3.870117,0.66602 -1.667969,0 -2.855957,-0.35938 -3.563965,-1.08008 -0.708008,-0.71973 -1.062012,-1.908204 -1.062012,-3.563478 0,-1.728515 0.348145,-2.943359 1.043946,-3.645507 0.695801,-0.702149 1.854004,-1.052735 3.474121,-1.052735 1.476074,0 2.543945,0.254883 3.204101,0.764649 0.659668,0.510742 0.995606,1.287109 1.007813,2.331054 0,0.828125 -0.212891,1.449219 -0.638672,1.863282 -0.426269,0.414062 -1.113281,0.621093 -2.061035,0.621093 z m -3.258301,-1.602539 2.52002,0 c 0.335937,0 0.558105,-0.07715 0.666015,-0.233398 0.10791,-0.15625 0.16211,-0.383789 0.16211,-0.68457 0,-0.419922 -0.10791,-0.710938 -0.324219,-0.873047 -0.21582,-0.161133 -0.611816,-0.242188 -1.187988,-0.242188 -0.684082,0 -1.151856,0.134766 -1.403809,0.404297 -0.251953,0.270508 -0.395996,0.813477 -0.432129,1.628906 z"
         class="st2" /><path
         style="fill:#ff7d13"
         id="path25"
         d="m 57.723633,98.241211 -0.10791,0 -2.105957,3.725589 -2.736329,0 2.736329,-4.553714 -2.52002,-4.320313 2.717773,0 1.890137,3.419922 0.16211,0 1.889648,-3.419922 2.718262,0 -2.52002,4.320313 2.717774,4.553714 -2.73584,0 -2.105957,-3.725589 z"
         class="st2" /><path
         style="fill:#ff7d13"
         id="path27"
         d="m 83.391602,93.092773 0,8.874027 -2.610352,0 0,-3.761722 -3.365723,0 0,3.761722 -2.627929,0 0,-8.874027 2.627929,0 0,3.257813 3.365723,0 0,-3.257813 2.610352,0 z"
         class="st2" /><path
         style="fill:#ff7d13"
         id="path29"
         d="m 105.18945,101.98438 -2.37597,0 0,-4.64356 c 0,-0.347656 0.0298,-0.822265 0.0898,-1.421875 l -0.0723,0 c -0.13183,0.431641 -0.354,0.870117 -0.66601,1.313477 l -3.347657,4.734378 -2.268067,0 0,-8.874026 2.357911,0 0,4.734375 c 0,0.335937 -0.03027,0.773437 -0.08984,1.313476 l 0.05371,0 c 0.155761,-0.395508 0.377929,-0.797851 0.666015,-1.206055 l 3.384278,-4.841796 2.26806,0 0,8.891606 z"
         class="st2" /><path
         style="fill:#ff7d13"
         id="path31"
         d="m 126.24902,93.092773 0,8.874027 -2.62793,0 0,-3.311527 c -1.02002,0.347657 -2.01611,0.521485 -2.98828,0.521485 -1.76367,0 -2.64599,-0.677735 -2.64599,-2.03418 l 0,-4.049805 2.62841,0 0,3.22168 c 0,0.3125 0.0688,0.53125 0.20704,0.657227 0.13769,0.125976 0.37451,0.189453 0.71093,0.189453 0.6836,0 1.37989,-0.125977 2.08789,-0.37793 l 0,-3.69043 2.62793,0 z"
         class="st2" /><path
         style="fill:#ff7d13"
         id="path33"
         d="m 145.07666,98.420898 -3.2041,0 c 0.084,0.647461 0.28223,1.083008 0.59424,1.304688 0.31201,0.222656 0.81591,0.333004 1.5122,0.333004 0.94776,0 2.05176,-0.06543 3.31202,-0.198238 l 0.25195,1.656248 c -0.92432,0.44434 -2.21436,0.66602 -3.87012,0.66602 -1.66797,0 -2.85596,-0.35938 -3.56396,-1.08008 -0.7085,-0.71973 -1.06202,-1.908204 -1.06202,-3.563478 0,-1.728515 0.34766,-2.943359 1.04395,-3.645507 0.6958,-0.702149 1.854,-1.052735 3.47412,-1.052735 1.47608,0 2.54395,0.254883 3.20361,0.764649 0.66016,0.510742 0.9961,1.287109 1.00831,2.331054 0,0.828125 -0.21338,1.449219 -0.63916,1.863282 -0.42579,0.414062 -1.11329,0.621093 -2.06104,0.621093 z m -3.25781,-1.602539 2.52002,0 c 0.33593,0 0.5581,-0.07715 0.66601,-0.233398 0.10791,-0.15625 0.16211,-0.383789 0.16211,-0.68457 0,-0.419922 -0.1084,-0.710938 -0.32422,-0.873047 -0.21582,-0.161133 -0.61181,-0.242188 -1.18798,-0.242188 -0.68409,0 -1.15186,0.134766 -1.40381,0.404297 -0.25196,0.270508 -0.396,0.813477 -0.43213,1.628906 z"
         class="st2" /><path
         style="fill:#ff7d13"
         id="path35"
         d="m 167.7207,99.860352 0.25196,1.728518 c -0.92383,0.39551 -2.07618,0.59375 -3.45606,0.59375 -1.63183,0 -2.78125,-0.35059 -3.44726,-1.05274 -0.66602,-0.70215 -0.99903,-1.905271 -0.99903,-3.609372 0,-1.715821 0.33594,-2.924805 1.00781,-3.626953 0.67188,-0.702149 1.83008,-1.052735 3.47461,-1.052735 1.34375,0 2.43555,0.186524 3.27539,0.557617 l -0.2871,1.65625 c -1.29688,-0.02344 -2.14258,-0.03613 -2.53809,-0.03613 -0.81641,0 -1.37695,0.174804 -1.68359,0.522461 -0.30567,0.347656 -0.45899,1.007812 -0.45899,1.979492 0,0.972656 0.15332,1.632812 0.45899,1.980469 0.30664,0.347656 0.86718,0.521481 1.68359,0.521481 1.05566,0 1.96191,-0.05371 2.71777,-0.162106 z"
         class="st2" /><path
         style="fill:#ff7d13"
         id="path37"
         d="m 185.70215,97.304687 0,0.07227 c 0.36033,0.04785 0.6543,0.09863 0.88183,0.15332 0.2285,0.05371 0.4502,0.165039 0.66602,0.333008 0.2168,0.167969 0.38086,0.323242 0.49512,0.467774 0.11425,0.143554 0.26074,0.422851 0.4414,0.836914 0.17969,0.414062 0.32618,0.794922 0.44043,1.142577 0.11426,0.34863 0.29102,0.90039 0.53125,1.65625 l -2.77148,0 c -0.52832,-1.67969 -0.91797,-2.711913 -1.16992,-3.095702 -0.25293,-0.383789 -0.69629,-0.576172 -1.33203,-0.576172 l -0.81055,0 c 0.0596,0.299804 0.0898,0.551758 0.0898,0.755859 l 0,2.916015 -2.64551,0 0,-8.874023 2.64551,0 0,2.267578 c 0,0.360352 -0.0361,0.720704 -0.10742,1.080079 l 0.66602,0 c 0.68359,0 1.15722,-0.194336 1.42187,-0.584961 0.26367,-0.389649 0.60547,-1.310547 1.02539,-2.762696 l 2.7002,0 c -0.55176,1.667969 -0.92383,2.675782 -1.11621,3.024414 -0.28711,0.527344 -0.71387,0.870118 -1.27735,1.025391 -0.2041,0.06055 -0.46191,0.114258 -0.77441,0.162109 z"
         class="st2" /><path
         style="fill:#ff7d13"
         id="path39"
         d="m 201.77637,95.073242 -0.23438,-1.800781 c 1.59571,-0.288086 3.13184,-0.431641 4.6084,-0.431641 1.19922,0 2.08496,0.243164 2.65527,0.728516 0.56934,0.486328 0.8545,1.330078 0.8545,2.529297 l 0,5.868167 -2.10547,0 -0.27051,-1.34961 c -0.8877,1.04394 -1.98633,1.56543 -3.29395,1.56543 -0.85253,0 -1.54492,-0.22461 -2.0791,-0.67481 -0.53418,-0.45019 -0.80078,-1.07715 -0.80078,-1.880857 l 0,-0.900391 c 0,-0.708007 0.24024,-1.259765 0.71973,-1.65625 0.48047,-0.395507 1.14551,-0.59375 1.99804,-0.59375 l 3.16797,0 0,-0.395507 c -0.0117,-0.444336 -0.11718,-0.747071 -0.31445,-0.90918 -0.19824,-0.162109 -0.5791,-0.243164 -1.14355,-0.243164 -0.97168,0 -2.22561,0.04785 -3.76172,0.144531 z m 1.96191,3.851563 0,0.341797 c 0,0.612304 0.3418,0.917968 1.02637,0.917968 0.70703,0 1.45117,-0.288086 2.23144,-0.864257 l 0,-1.241211 -2.39355,0 c -0.57617,0.01172 -0.86426,0.293945 -0.86426,0.845703 z"
         class="st2" /><path
         style="fill:#ff7d13"
         id="path41"
         d="m 224.49219,98.186523 0,-0.08984 c -1.2959,-0.240235 -1.94434,-1.038086 -1.94434,-2.393555 0,-1.043945 0.26463,-1.770508 0.79199,-2.178711 0.52832,-0.407227 1.53028,-0.611328 3.00684,-0.611328 1.99121,0 3.41992,0.04199 4.2832,0.125977 l 0,8.927734 -2.59179,0 0,-3.024414 -1.6377,0 c -0.60059,0 -0.94238,0.216797 -1.02637,0.648437 l -0.59375,2.375977 -2.73632,0 0.75585,-2.753906 c 0.16797,-0.587891 0.73243,-0.929688 1.69239,-1.026368 z m 3.5459,-0.989257 0,-2.322266 -1.6377,0 c -0.52832,0 -0.87012,0.06934 -1.02637,0.207031 -0.15625,0.137696 -0.2334,0.428711 -0.2334,0.873047 0,0.503906 0.0771,0.836914 0.2334,0.999024 0.15625,0.162109 0.49805,0.243164 1.02637,0.243164 l 1.6377,0 z"
         class="st2" /><path
         style="fill:#ff7d13"
         id="path43"
         d="m 21.273926,123.58496 -2.375977,0 0,-4.64453 c 0,-0.34766 0.02979,-0.82129 0.08984,-1.42188 l -0.07178,0 c -0.132325,0.43262 -0.354004,0.87012 -0.666016,1.31446 l -3.348144,4.7334 -2.268067,0 0,-8.87403 2.358399,0 0,4.73438 c 0,0.33594 -0.03027,0.77441 -0.09033,1.31445 l 0.0542,0 c 0.155761,-0.39648 0.377929,-0.79785 0.666015,-1.20605 l 3.383789,-4.84278 2.268067,0 0,8.89258 z"
         class="st2" /><path
         style="fill:#ff7d13"
         id="path45"
         d="m 43.035644,114.69238 0,8.87403 -2.609863,0 0,-3.76172 -3.366211,0 0,3.76172 -2.627929,0 0,-8.87403 2.627929,0 0,3.25879 3.366211,0 0,-3.25879 2.609863,0 z"
         class="st2" /><path
         style="fill:#ff7d13"
         id="path47"
         d="m 62.367676,118.95898 0,0.0723 c 0.815918,0.0596 1.397949,0.28126 1.746094,0.66602 0.347656,0.38378 0.521972,0.9414 0.521972,1.67382 0,0.8877 -0.282226,1.5 -0.846191,1.83594 -0.563965,0.33594 -1.518067,0.50391 -2.861817,0.50391 -2.02832,0 -3.612304,-0.0361 -4.751953,-0.1084 l 0,-8.91016 c 1.019532,-0.0713 2.435547,-0.10742 4.247559,-0.10742 1.464355,0 2.478027,0.16504 3.041992,0.49512 0.563965,0.33008 0.846192,0.95117 0.846192,1.8623 0,0.63672 -0.152832,1.11914 -0.458985,1.44922 -0.306152,0.33008 -0.800781,0.51953 -1.484863,0.56738 z m -3.689942,-0.73828 1.745606,0 c 0.540039,0 0.90918,-0.0654 1.107422,-0.19824 0.197754,-0.13183 0.296875,-0.38379 0.296875,-0.75586 0,-0.33594 -0.10791,-0.56348 -0.324219,-0.68359 -0.21582,-0.12012 -0.618164,-0.18067 -1.206055,-0.18067 l -1.619629,-0.0176 0,1.83593 z m 0,3.63575 1.799805,0 c 0.576172,0 0.972168,-0.0684 1.187988,-0.20704 0.215821,-0.13769 0.324219,-0.41601 0.324219,-0.8369 0,-0.39552 -0.114258,-0.66896 -0.342285,-0.81837 -0.228027,-0.15039 -0.636231,-0.22559 -1.224121,-0.22559 l -1.745606,0 0,2.0879 z"
         class="st2" /><path
         style="fill:#ff7d13"
         id="path49"
         d="m 82.977539,120.02051 -3.204102,0 c 0.08398,0.64844 0.281739,1.08301 0.59375,1.30566 0.312012,0.22168 0.815918,0.33301 1.512208,0.33301 0.947753,0 2.052246,-0.0664 3.312011,-0.19824 l 0.251953,1.65625 c -0.924316,0.44336 -2.213867,0.66601 -3.870117,0.66601 -1.667969,0 -2.855957,-0.36035 -3.563965,-1.08007 -0.708007,-0.72071 -1.062011,-1.90821 -1.062011,-3.56446 0,-1.72754 0.348144,-2.94238 1.043945,-3.64453 0.695801,-0.70215 1.854004,-1.05371 3.474121,-1.05371 1.476074,0 2.543945,0.25586 3.204102,0.76562 0.659668,0.50977 0.996093,1.28711 1.007812,2.33106 0,0.82812 -0.21289,1.44824 -0.638672,1.8623 -0.426269,0.41407 -1.113281,0.6211 -2.061035,0.6211 z m -3.258301,-1.60156 2.52002,0 c 0.335937,0 0.558105,-0.0781 0.666015,-0.23438 0.108399,-0.15527 0.16211,-0.38379 0.16211,-0.68359 0,-0.41993 -0.10791,-0.71094 -0.323731,-0.87305 -0.216308,-0.16211 -0.612304,-0.24316 -1.187988,-0.24316 -0.684082,0 -1.152344,0.13476 -1.404297,0.40527 -0.251953,0.26953 -0.395996,0.8125 -0.432129,1.62891 z"
         class="st2" /><path
         style="fill:#ff7d13"
         id="path51"
         d="m 106.97119,114.69238 0,8.87403 -2.60986,0 0,-3.76172 -3.36621,0 0,3.76172 -2.627933,0 0,-8.87403 2.627933,0 0,3.25879 3.36621,0 0,-3.25879 2.60986,0 z"
         class="st2" /><path
         style="fill:#ff7d13"
         id="path53"
         d="m 127.88721,116.74512 -2.95215,0 0,6.82129 -2.62793,0 0,-6.82129 -2.95215,0 0,-2.05274 8.53223,0 0,2.05274 z"
         class="st2" /><path
         style="fill:#ff7d13"
         id="path55"
         d="m 140.41504,116.67285 -0.23438,-1.7998 c 1.5962,-0.28809 3.13233,-0.43262 4.6084,-0.43262 1.19971,0 2.08496,0.24316 2.65479,0.72949 0.56982,0.48633 0.85498,1.3291 0.85498,2.5293 l 0,5.86719 -2.10596,0 -0.27002,-1.34961 c -0.88818,1.04394 -1.98633,1.5664 -3.29394,1.5664 -0.85205,0 -1.54541,-0.22558 -2.07911,-0.67578 -0.53417,-0.44922 -0.80078,-1.07617 -0.80078,-1.88086 l 0,-0.89941 c 0,-0.70801 0.23975,-1.26074 0.71973,-1.65625 0.47998,-0.39649 1.146,-0.59375 1.99805,-0.59375 l 3.16797,0 0,-0.39649 c -0.0117,-0.44336 -0.1167,-0.74707 -0.31495,-0.90918 -0.19775,-0.16211 -0.5791,-0.24316 -1.14306,-0.24316 -0.97168,0 -2.22608,0.0488 -3.76172,0.14453 z m 1.96191,3.85156 0,0.34278 c 0,0.61133 0.3418,0.91797 1.02588,0.91797 0.70801,0 1.45166,-0.28809 2.23194,-0.86426 l 0,-1.24219 -2.39405,0 c -0.57568,0.0117 -0.86377,0.29395 -0.86377,0.8457 z"
         class="st2" /><path
         style="fill:#ff7d13"
         id="path57"
         d="m 163.52734,114.69238 0.19727,1.29688 c 0.37207,-0.44434 0.88477,-0.81055 1.53906,-1.09863 0.6543,-0.28809 1.31738,-0.43165 1.98926,-0.43165 2.05176,0 3.07812,1.58399 3.07812,4.75196 0,1.7041 -0.27636,2.89551 -0.82812,3.57324 -0.55176,0.67773 -1.41016,1.0166 -2.57422,1.0166 -1.20019,0 -2.18945,-0.28808 -2.96973,-0.86426 0.0596,0.61231 0.0781,1.24805 0.0537,1.90821 l 0,2.1416 -2.64551,0 0,-12.29395 2.16015,0 z m 0.48536,2.7002 0,4.06836 c 0.93652,0.24023 1.60839,0.36035 2.0166,0.36035 0.59961,0 1.01074,-0.16797 1.23242,-0.50488 0.22168,-0.33496 0.33301,-1.03711 0.33301,-2.10547 0,-1.04395 -0.10157,-1.74903 -0.30567,-2.11524 -0.2041,-0.36621 -0.56445,-0.54882 -1.08008,-0.54882 -0.60058,0 -1.33203,0.28222 -2.19628,0.8457 z"
         class="st2" /><path
         style="fill:#ff7d13"
         id="path59"
         d="m 191.75098,123.58496 -2.37598,0 0,-4.64453 c 0,-0.34766 0.0293,-0.82129 0.0898,-1.42188 l -0.0723,0 c -0.13184,0.43262 -0.35352,0.87012 -0.66602,1.31446 l -3.34765,4.7334 -2.26758,0 0,-8.87403 2.35742,0 0,4.73438 c 0,0.33594 -0.0303,0.77441 -0.0898,1.31445 l 0.0537,0 c 0.15625,-0.39648 0.37793,-0.79785 0.66601,-1.20605 l 3.38379,-4.84278 2.26856,0 0,8.89258 z"
         class="st2" /><path
         style="fill:#ff7d13"
         id="path61"
         d="m 204.74707,116.70898 -0.18066,-1.83593 c 0.87597,-0.26367 1.91406,-0.39649 3.11425,-0.39649 1.64356,0 2.77832,0.15625 3.40235,0.46778 0.62304,0.3125 0.93554,0.96093 0.93554,1.94433 0,0.68457 -0.14355,1.18848 -0.43164,1.51172 -0.28808,0.32422 -0.77443,0.51074 -1.458,0.55859 l 0,0.0723 c 0.79199,0.0596 1.36425,0.27832 1.71875,0.65626 0.35351,0.37792 0.53125,0.93358 0.53125,1.66503 0,0.98437 -0.30957,1.63574 -0.92774,1.95312 -0.61816,0.31836 -1.67676,0.47754 -3.17676,0.47754 -1.53613,0 -2.86132,-0.12011 -3.97754,-0.36035 l 0.17969,-1.83594 c 1.2959,0.12012 2.4961,0.17969 3.59961,0.17969 0.63672,0 1.05664,-0.0566 1.26074,-0.1709 0.20313,-0.11425 0.30567,-0.36914 0.30567,-0.76465 0,-0.36035 -0.10547,-0.59667 -0.31543,-0.71093 -0.20996,-0.11426 -0.62012,-0.17676 -1.23242,-0.18946 l -2.55567,-0.0361 0,-1.67383 2.53711,-0.0361 c 0.52832,0 0.88477,-0.0566 1.07129,-0.1709 0.18652,-0.11426 0.2793,-0.35058 0.2793,-0.71094 0,-0.32421 -0.1084,-0.53418 -0.32422,-0.62988 -0.21582,-0.0957 -0.64746,-0.14453 -1.2959,-0.14453 -1.10449,0 -2.12402,0.0606 -3.05957,0.18066 z"
         class="st2" /><path
         style="fill:#ff7d13"
         id="path63"
         d="m 225.32031,116.67285 -0.2334,-1.7998 c 1.59571,-0.28809 3.13184,-0.43262 4.60743,-0.43262 1.20019,0 2.08496,0.24316 2.65527,0.72949 0.56934,0.48633 0.85449,1.3291 0.85449,2.5293 l 0,5.86719 -2.10547,0 -0.27051,-1.34961 c -0.88769,1.04394 -1.98535,1.5664 -3.29394,1.5664 -0.85156,0 -1.54492,-0.22558 -2.07813,-0.67578 -0.53418,-0.44922 -0.80175,-1.07617 -0.80175,-1.88086 l 0,-0.89941 c 0,-0.70801 0.24023,-1.26074 0.7207,-1.65625 0.47949,-0.39649 1.14551,-0.59375 1.99805,-0.59375 l 3.16797,0 0,-0.39649 c -0.0127,-0.44336 -0.11719,-0.74707 -0.31543,-0.90918 -0.19825,-0.16211 -0.57911,-0.24316 -1.14258,-0.24316 -0.97266,0 -2.22656,0.0488 -3.7627,0.14453 z m 1.96192,3.85156 0,0.34278 c 0,0.61133 0.34277,0.91797 1.02636,0.91797 0.70801,0 1.45215,-0.28809 2.23243,-0.86426 l 0,-1.24219 -2.39454,0 c -0.57617,0.0117 -0.86425,0.29395 -0.86425,0.8457 z"
         class="st2" /><path
         style="fill:#ff7d13"
         id="path65"
         d="m 255.95703,121.65918 0,4.44531 -1.76465,0 -0.19824,-2.53808 -7.72168,0 0,-8.87403 2.62793,0 0,6.9668 3.07813,0 0,-6.9668 2.62793,0 0,6.9668 1.35058,0 z"
         class="st2" /><path
         style="fill:#ff7d13"
         id="path67"
         d="m 277.05273,123.58496 -2.37597,0 0,-4.64453 c 0,-0.34766 0.0293,-0.82129 0.0898,-1.42188 l -0.0723,0 c -0.13184,0.43262 -0.35352,0.87012 -0.66602,1.31446 l -3.34766,4.7334 -2.26855,0 0,-8.87403 2.3584,0 0,4.73438 c 0,0.33594 -0.0303,0.77441 -0.0899,1.31445 l 0.0537,0 c 0.15625,-0.39648 0.37793,-0.79785 0.66602,-1.20605 l 3.38379,-4.84278 2.26855,0 0,8.89258 z"
         class="st2" /><path
         style="fill:#ff7d13"
         id="path69"
         d="m 291.97461,119.78711 0,-0.0898 c -1.2959,-0.24024 -1.94434,-1.03809 -1.94434,-2.39454 0,-1.04394 0.26368,-1.76953 0.792,-2.17773 0.52832,-0.4082 1.53027,-0.6123 3.00586,-0.6123 1.99218,0 3.41992,0.042 4.28417,0.12597 l 0,8.92774 -2.59179,0 0,-3.02344 -1.6377,0 c -0.60058,0 -0.94238,0.21582 -1.02636,0.64746 l -0.59375,2.37598 -2.73633,0 0.75586,-2.7539 c 0.16797,-0.5879 0.73144,-0.9297 1.69238,-1.0254 z m 3.5459,-0.99023 0,-2.32227 -1.6377,0 c -0.52832,0 -0.87109,0.0693 -1.02636,0.20703 -0.15625,0.13867 -0.23438,0.42969 -0.23438,0.87305 0,0.5039 0.0781,0.83691 0.23438,0.99902 0.15527,0.16211 0.49804,0.24317 1.02636,0.24317 l 1.6377,0 z"
         class="st2" /></g></g></svg>